<?xml version="1.0" encoding="UTF-8"?>
<svg id="Layer_1" xmlns="http://www.w3.org/2000/svg" version="1.1" viewBox="0 0 612 1024">
  <!-- Generator: Adobe Illustrator 29.5.1, SVG Export Plug-In . SVG Version: 2.1.0 Build 141)  -->
  <defs>
    <style>
      .st0 {
        fill: #020202;
      }

      .st1 {
        fill: none;
        stroke: #000;
        stroke-miterlimit: 10;
        stroke-width: .25px;
      }

      .st2 {
        fill: #e87428;
      }
    </style>
  </defs>
  <g>
    <path class="st2" d="M224.04,547.33c.34,2.02-.74,2.21-1.79,2.31-9.08.81-18.19.32-27.29.37-2.49.02-2.6-2.03-2.08-3.73,2.45-7.94,3.11-16.24,4.8-24.33,1.08-5.12,1.83-10.45,2.78-15.65,1.7-9.34,2.62-18.85,5.49-27.96.6-1.89.36-3.84.5-5.76.08-1.29-.43-2.76,1.04-3.85,1.92.59,1.96,2.21,2.01,3.8.24,6.62,2.24,12.88,3.7,19.27.88,3.84,1.7,7.81,2.08,11.65.5,5.12,2.53,9.83,2.81,15.01.19,3.46,1.37,7.07,2.13,10.61,1.3,6.08,3.22,12.03,3.82,18.26Z"/>
    <path class="st2" d="M365.17,509.97c1.52-4.18,1.97-8.76,4.39-12.73.94.87.59,1.83.62,2.68.61,16.6-.02,33.2,0,49.8.01,23.32.14,46.64.16,69.97,0,2.65,1.19,3.71,3.71,3.7,7.4-.02,14.8-.04,22.19.02,2.87.02,3.95-1.36,4.28-4.12.63-5.22.29-10.45.32-15.67.13-21.61.08-43.22.08-64.84,0-18.66.15-37.33-.06-55.99-.26-23.77-.69-47.54,0-71.3.08-2.69-1.67-4.32-4.49-4.3-6.49.04-12.98.13-19.46.11-5.85-.03-6.73.63-8.47,6.12-2.54,8.05-5.43,15.98-7.72,24.09-2.48,8.79-5.6,17.35-8.89,25.82-3.63,9.36-7.01,18.78-9.77,28.43-.24.83-.44,1.57-1.49,1.5-.81-.06-1.14-.7-1.32-1.37-1.73-6.76-4.18-13.28-6.47-19.85-2.27-6.52-4.81-12.94-7.1-19.45-2.96-8.41-5.78-16.86-8.7-25.29-1.92-5.55-3.89-11.08-5.88-16.6-.84-2.35-2.47-3.42-5.03-2.95-.88.16-1.81.07-2.71.05-5.55-.1-11.11-.27-16.67-.31-2.95-.02-4.44,1.48-4.84,4.55-.68,5.32-.36,10.66-.41,15.96-.21,23.33-.06,46.67-.03,70.34-.02,29.82-.04,59.3-.06,88.78-.01,10.47-.02,20.94-.04,31.41,0,2.58.28,4.92,3.7,4.89,7.74-.06,15.48-.14,23.22-.17,3.1-.01,4.32-1.19,4.23-4.55-.56-21.84.44-43.68.08-65.53-.3-17.84.74-35.71-.22-53.56-.03-.58.07-1.14.79-1.3.82.26.75,1.01.96,1.65,1.64,5.02,2.89,10.23,5.1,15,2.58,5.56,4.81,11.26,6.93,16.97,4.27,11.55,9.01,22.95,12.58,34.76.71,2.33,2.44,4.09,5.28,4.1,2.69,0,3.94-1.86,4.56-3.93,1.71-5.72,3.13-11.54,4.69-17.31,1.47-5.46,2.84-10.94,4.48-16.35,2.36-7.79,4.7-15.59,7.48-23.23ZM502.98,504.53c.14.66.05,1.36-.01,2.04-.39,4.62-.4,4.75-5.06,4.75-27.2,0-54.4-.05-81.61-.11-5.13-.02-5.36.18-5.31,5.34.03,3.65.03,7.29-.06,10.93-.1,4.18.51,4.56,4.58,4.48,9.32-.2,18.65-.12,27.98-.13,12.07-.01,24.14.14,36.2-.07,6.47-.12,12.93-.77,19.43-.33,2.62.17,3.76,1.17,3.64,3.73-.43,8.85-1.43,17.61-3.11,26.31-.82,4.22-1.24,8.51-2.52,12.65-1.26,4.06-2.57,8.13-3.37,12.29-1.03,5.36-3.21,10.32-4.99,15.4-1.9,5.42-4.52,10.59-6.91,15.84-4.36,9.6-9.43,18.84-15.25,27.63-3.68,5.56-7.69,10.93-12.69,16.41-2.76-3.71-5.53-7.06-7.88-10.68-5.3-8.19-10.65-16.36-15.49-24.82-5.26-9.2-10.23-18.57-13.18-28.87-.84-2.93-2.06-5.7-2.09-8.86-.02-1.81-1.48-2.97-3.23-2.86-1.59.11-1.59,1.75-1.6,2.97-.01,16.74.01,33.47.02,50.2,0,1.54.56,2.84,1.51,4.06,8.66,11.24,15.62,23.69,24.84,34.52,1.24,1.46.93,2.57-.46,3.76-9.07,7.74-18.23,15.31-28.14,22.02-9.05,6.14-18.36,11.71-28.15,16.53-5.68,2.8-11.65,4.9-17.56,7.15-7.19,2.73-14.53,5.02-21.98,6.86-8.55,2.11-16.9,5.08-25.9,5.21-5.09.08-10,1.98-15.21,1.88-3.32-.07-4.31-1.24-4.3-4.42.05-15.83.05-31.65-.17-47.47-.13-8.99-.58-17.97.07-26.95.17-2.35-.75-3.7-3.27-3.7-5.47,0-10.93-.03-16.39-.05-2.91-.01-3.61,1.75-3.6,4.26.02,10.01-.01,20.03-.01,30.05-.01,14.45-.01,28.91-.02,43.37,0,4.66-.26,5.35-4.74,4.66-7.25-1.12-14.61-1.37-21.8-3.24-6.43-1.67-13.05-2.68-19.53-4.29-7.66-1.9-15.15-4.34-22.49-7.3-5.97-2.41-11.98-4.75-17.72-7.67-17.97-9.13-34.65-20.22-49.94-33.38-6.3-5.43-6.37-6.6-1.23-13.03,7.54-9.41,13.77-19.67,19.6-30.19.44-.79.88-1.58,1.41-2.31,1.4-1.92.45-2.85-1.43-2.87-7.06-.09-14.11-.06-21.17,0-1.6.01-2.58,1.01-3.48,2.36-4.15,6.24-7.95,12.72-12.6,18.62-2.7,3.43-3.75,3.57-6.46.15-10.67-13.48-19.72-27.92-26.7-43.71-4.41-9.96-8.33-20.12-11.07-30.57-3.06-11.67-6.46-23.36-6.8-35.61-.11-3.74-.85-7.46-1.23-11.19-.37-3.61.35-3.94,3.9-4.06,8.42-.31,16.82.3,25.23.29,13.65-.02,27.31-.11,40.97.05,3.77.04,6.15-1.46,7.39-4.78,1.54-4.12,3.77-7.96,4.83-12.3.82-3.37.44-4.22-3.12-4.22-9.67,0-19.34,0-29.02.08-15.57.13-31.15.32-46.72.47-3.92.04-4.64-.45-4.06-4.28,1.27-8.42,1.82-16.91,3.22-25.33,1.28-7.72,3.37-15.23,5.2-22.77,1.75-7.18,4.45-14.17,7.17-21.11,3.52-8.99,7.61-17.66,12.12-26.18,5.44-10.27,12.3-19.55,19.32-28.74,1.22-1.61,2.51-3.17,4.13-5.19,2.75,3.59,5.52,6.84,7.88,10.36,5.18,7.73,10.18,15.58,15.21,23.41,6.56,10.23,11.94,21.09,16.89,32.18.5,1.12.62,2.69,2.31,2.41,1.59-.27,2.74-1.46,2.71-3.1-.1-3.94,1.1-7.58,1.99-11.34,1.36-5.73,2.25-11.57,3.42-17.35.51-2.56-.42-4.87-1.64-6.82-6.75-10.76-13.22-21.74-21.35-31.55-3.4-4.1-6.28-8.67-10.34-12.21-1.96-1.71-.97-3.25.37-4.65,6.15-6.39,12.59-12.44,19.67-17.81,12.08-9.16,25.08-16.6,38.97-22.71,9.53-4.2,19.26-7.83,29.04-11.31,6.81-2.42,14.08-3.31,21.16-4.8,6.26-1.33,12.62-1.37,18.82-2.73,2.59-.56,5.2-.5,7.81-.66,2.99-.19,3.96,1.2,3.95,4.07-.06,13.32.02,26.64.02,39.95.01,11.16-.03,22.31-.02,33.47,0,4.32.42,4.73,4.64,4.73,4.67.01,9.33-.02,14-.01,4.26,0,4.7-.37,4.7-4.67,0-22.65-.03-45.3-.04-67.95,0-.12,0-.23,0-.35-.13-9.88,1.04-10.73,10.98-8.91,7.23,1.32,14.58,2.06,21.78,3.5,6.76,1.35,13.47,2.97,20.06,5.14,6.54,2.16,13.17,4.03,19.62,6.5,11.26,4.31,21.81,9.95,32.02,16.32,13.25,8.26,25.39,17.93,36.91,28.43,1.31,1.19,2.15,2.11.68,3.91-4.87,5.99-9.6,12.11-14.39,18.18-4.05,5.79-7.82,11.18-11.56,16.59-.83,1.19-.79,2.59-.79,3.96.03,14.34.04,28.68.1,43.02,0,1.43-.34,3.44,1.46,3.77,1.98.36,2.53-1.73,2.97-3.15,5.84-18.73,16.29-34.95,27.43-50.81,3.19-4.54,6.34-9.11,9.51-13.67,1.68-2.43,3-2.53,4.73-.31,10,12.84,18.62,26.59,25.62,41.25,3.53,7.4,6.46,15.11,9.09,22.95,3.57,10.64,6,21.47,8.22,32.45,1.79,8.85,1.7,17.85,3.47,26.64ZM267.06,623.4c2.26-.01,4.02-1.35,3.25-3.7-1.1-3.37-1.48-6.86-2.36-10.25-1.17-4.46-2.36-8.93-3.39-13.43-.98-4.3-1.75-8.65-2.67-12.97-1.65-7.74-3.55-15.44-4.98-23.22-1.43-7.8-3.28-15.52-4.82-23.29-1.79-8.98-3.77-17.93-5.6-26.91-.77-3.77-1.2-7.7-2.35-11.25-1.54-4.8-1.71-9.8-3.11-14.61-1.01-3.49-2.14-7.19-2.4-10.9-.34-4.89-1.73-9.6-2.76-14.28-1.79-8.16-3.46-16.38-5.16-24.55-1.56-7.51-3.27-15.04-4.46-22.65-.38-2.44-1.95-4.27-4.59-4.28-9.2-.04-18.4-.64-27.61,0-2.72.19-4.17,1.25-5.24,3.9-1.32,3.29-.79,6.77-1.91,10.01-1.6,4.69-2.84,9.51-3.36,14.43-.84,7.89-3.09,15.5-4.54,23.26-1.18,6.28-3.02,12.44-3.68,18.83-.08.77-.3,1.56-.59,2.29-1.74,4.33-2.45,8.99-3.1,13.5-1.21,8.4-3.73,16.49-4.99,24.89-1.37,9.24-3.89,18.31-5.68,27.51-.84,4.32-1.38,8.73-2.44,12.96-1.04,4.15-2.28,8.39-2.86,12.51-1.2,8.43-3.8,16.52-5.14,24.9-.6,3.73-.6,7.73-2.49,11.54-1.01,4.22-.82,8.34-2.4,12.23-.99,2.43.84,3.55,3.15,3.55,9.21.03,18.43,0,27.65.01,2.16,0,3.39-1.04,3.79-3.15,1.28-6.77,2.66-13.54,3.92-20.3,1.28-6.89,2.64-13.79,3.76-20.71.46-2.84,1.93-3.69,4.61-3.84,10.64-.63,21.27.84,31.9.07,1.79-.13,2.95.57,3.76,2.26,1.77,3.73,2.31,7.85,3.05,11.74,1.58,8.33,3.9,16.53,4.72,25.01.23,2.32,1.72,4.39,1.96,6.83.14,1.46,1.56,1.88,2.87,1.89,8.77.09,17.53.19,26.29.17Z"/>
    <path class="st0" d="M519.87,475.7c1.52,8.64,2.7,17.46,2.66,26.33-.06,14.34.08,28.69-.06,43.03-.08,8.51-2.07,16.78-3.45,25.14-.73,4.45-2,8.77-2.64,13.23-.5,3.53-1.68,6.96-2.68,10.4-1.04,3.55-2.14,7.09-3.39,10.57-1.4,3.88-2.8,7.78-4.54,11.51-3.54,7.54-6.84,15.18-11.02,22.44-5.14,8.91-10.54,17.63-16.6,25.94-8.91,12.23-18.83,23.52-30.26,33.51-10.5,9.18-21.47,17.73-33.12,25.38-11.17,7.34-23.12,13.31-35.4,18.51-10.14,4.3-20.56,7.9-31.32,10.54-6.46,1.58-13,2.76-19.46,4.22-15.6,3.52-31.31,4.51-47.19,4.26-8.4-.13-16.89.29-25.16-.88-6.08-.85-12.34-1.13-18.28-3.03-3.56-1.14-7.32-1.35-10.97-2.13-11.86-2.55-23.3-6.4-34.43-10.92-13.95-5.68-27.12-13-39.94-21.08-19.27-12.14-35.93-27.19-51.18-43.87-5.25-5.73-9.27-12.57-13.97-18.82-5.87-7.77-11.45-15.72-15.74-24.5-4.04-8.27-8.19-16.46-11.51-25.1-2.53-6.58-5.01-13.21-7.07-19.91-1.15-3.75-2.22-7.72-3.1-11.63-.93-4.12-1.02-8.5-2.73-12.46-.73-1.7-1.03-3.49-.95-5.33.12-2.54-.27-4.99-1.19-7.66-1.17-7.32-.76-14.35-.31-21.4.64-10.13-.7-20.24-.5-30.36.18-8.74,1.98-17.24,3.53-25.82.79-4.4,2.26-8.66,2.65-13.19.27-3.13,1.71-6.21,2.54-9.35,1.52-5.81,3.47-11.54,5.5-17.21,1.47-4.09,3.43-8.01,5.05-12.06,3.53-8.8,7.86-17.2,12.9-25.22,4.15-6.61,8.65-12.99,12.77-19.62,11.33-18.28,27.69-32.01,42.9-46.66,9.24-8.9,20.53-15.59,31.72-22.13,8.74-5.1,17.82-9.51,26.96-13.76,4.53-2.1,9.53-3.3,14.31-4.92,5.53-1.88,11.25-3.09,16.71-5.15,2.76-1.04,5.73-1.27,8.56-1.96,5.12-1.23,10.44-2.07,15.58-3.13,8.97-1.84,18.05-1.19,27-2.68,7.39-1.24,14.97-.79,22.44.37,1.9.3,3.83.53,5.76.57,9.31.19,18.35,2.17,27.49,3.68,4.56.75,9.11,1.6,13.6,2.62,3.92.89,7.9,1.68,11.7,3.17,2.7,1.06,5.56,1.67,8.33,2.57,6.52,2.13,12.74,4.89,19.04,7.54,7.67,3.22,14.82,7.4,22.12,11.28,5.98,3.17,11.84,6.71,17.31,10.69,9.7,7.05,19.19,14.4,27.67,22.97,9.32,9.43,19.19,18.36,27.09,29.09,7.65,10.38,14.57,21.23,20.61,32.66,4.26,8.06,8.03,16.34,11.45,24.74,1.95,4.8,3.8,9.77,4.85,14.94.5,2.51,1.45,4.98,2.25,7.37,2.49,7.41,3.78,15.1,5.11,22.67ZM502.97,506.57c.06-.68.15-1.38.01-2.04-1.77-8.79-1.68-17.79-3.47-26.64-2.22-10.98-4.65-21.81-8.22-32.45-2.63-7.84-5.56-15.55-9.09-22.95-7-14.66-15.62-28.41-25.62-41.25-1.73-2.22-3.05-2.12-4.73.31-3.17,4.56-6.32,9.13-9.51,13.67-11.14,15.86-21.59,32.08-27.43,50.81-.44,1.42-.99,3.51-2.97,3.15-1.8-.33-1.46-2.34-1.46-3.77-.06-14.34-.07-28.68-.1-43.02,0-1.37-.04-2.77.79-3.96,3.74-5.41,7.51-10.8,11.56-16.59,4.79-6.07,9.52-12.19,14.39-18.18,1.47-1.8.63-2.72-.68-3.91-11.52-10.5-23.66-20.17-36.91-28.43-10.21-6.37-20.76-12.01-32.02-16.32-6.45-2.47-13.08-4.34-19.62-6.5-6.59-2.17-13.3-3.79-20.06-5.14-7.2-1.44-14.55-2.18-21.78-3.5-9.94-1.82-11.11-.97-10.98,8.91,0,.12,0,.23,0,.35.01,22.65.04,45.3.04,67.95,0,4.3-.44,4.67-4.7,4.67-4.67,0-9.33.02-14,.01-4.22,0-4.64-.41-4.64-4.73,0-11.16.03-22.31.02-33.47,0-13.31-.08-26.63-.02-39.95.01-2.87-.96-4.26-3.95-4.07-2.61.16-5.22.1-7.81.66-6.2,1.36-12.56,1.4-18.82,2.73-7.08,1.49-14.35,2.38-21.16,4.8-9.78,3.48-19.51,7.11-29.04,11.31-13.89,6.11-26.89,13.55-38.97,22.71-7.08,5.37-13.52,11.42-19.67,17.81-1.34,1.4-2.33,2.94-.37,4.65,4.06,3.54,6.94,8.11,10.34,12.21,8.13,9.81,14.6,20.79,21.35,31.55,1.22,1.95,2.15,4.26,1.64,6.82-1.17,5.78-2.06,11.62-3.42,17.35-.89,3.76-2.09,7.4-1.99,11.34.03,1.64-1.12,2.83-2.71,3.1-1.69.28-1.81-1.29-2.31-2.41-4.95-11.09-10.33-21.95-16.89-32.18-5.03-7.83-10.03-15.68-15.21-23.41-2.36-3.52-5.13-6.77-7.88-10.36-1.62,2.02-2.91,3.58-4.13,5.19-7.02,9.19-13.88,18.47-19.32,28.74-4.51,8.52-8.6,17.19-12.12,26.18-2.72,6.94-5.42,13.93-7.17,21.11-1.83,7.54-3.92,15.05-5.2,22.77-1.4,8.42-1.95,16.91-3.22,25.33-.58,3.83.14,4.32,4.06,4.28,15.57-.15,31.15-.34,46.72-.47,9.68-.08,19.35-.08,29.02-.08,3.56,0,3.94.85,3.12,4.22-1.06,4.34-3.29,8.18-4.83,12.3-1.24,3.32-3.62,4.82-7.39,4.78-13.66-.16-27.32-.07-40.97-.05-8.41.01-16.81-.6-25.23-.29-3.55.12-4.27.45-3.9,4.06.38,3.73,1.12,7.45,1.23,11.19.34,12.25,3.74,23.94,6.8,35.61,2.74,10.45,6.66,20.61,11.07,30.57,6.98,15.79,16.03,30.23,26.7,43.71,2.71,3.42,3.76,3.28,6.46-.15,4.65-5.9,8.45-12.38,12.6-18.62.9-1.35,1.88-2.35,3.48-2.36,7.06-.06,14.11-.09,21.17,0,1.88.02,2.83.95,1.43,2.87-.53.73-.97,1.52-1.41,2.31-5.83,10.52-12.06,20.78-19.6,30.19-5.14,6.43-5.07,7.6,1.23,13.03,15.29,13.16,31.97,24.25,49.94,33.38,5.74,2.92,11.75,5.26,17.72,7.67,7.34,2.96,14.83,5.4,22.49,7.3,6.48,1.61,13.1,2.62,19.53,4.29,7.19,1.87,14.55,2.12,21.8,3.24,4.48.69,4.74,0,4.74-4.66,0-14.46,0-28.92.02-43.37,0-10.02.03-20.04.01-30.05-.01-2.51.69-4.27,3.6-4.26,5.46.02,10.92.05,16.39.05,2.52,0,3.44,1.35,3.27,3.7-.65,8.98-.2,17.96-.07,26.95.22,15.82.22,31.64.17,47.47,0,3.18.98,4.35,4.3,4.42,5.21.1,10.12-1.8,15.21-1.88,9-.13,17.35-3.1,25.9-5.21,7.45-1.84,14.79-4.13,21.98-6.86,5.91-2.25,11.88-4.35,17.56-7.15,9.79-4.82,19.1-10.39,28.15-16.53,9.91-6.71,19.07-14.28,28.14-22.02,1.39-1.19,1.7-2.3.46-3.76-9.22-10.83-16.18-23.28-24.84-34.52-.95-1.22-1.51-2.52-1.51-4.06,0-16.73-.03-33.46-.02-50.2.01-1.22.01-2.86,1.6-2.97,1.75-.11,3.21,1.05,3.23,2.86.03,3.16,1.25,5.93,2.09,8.86,2.95,10.3,7.92,19.67,13.18,28.87,4.84,8.46,10.19,16.63,15.49,24.82,2.35,3.62,5.12,6.97,7.88,10.68,5-5.48,9.01-10.85,12.69-16.41,5.82-8.79,10.89-18.03,15.25-27.63,2.39-5.25,5.01-10.42,6.91-15.84,1.78-5.08,3.96-10.04,4.99-15.4.8-4.16,2.11-8.23,3.37-12.29,1.28-4.14,1.7-8.43,2.52-12.65,1.68-8.7,2.68-17.46,3.11-26.31.12-2.56-1.02-3.56-3.64-3.73-6.5-.44-12.96.21-19.43.33-12.06.21-24.13.06-36.2.07-9.33.01-18.66-.07-27.98.13-4.07.08-4.68-.3-4.58-4.48.09-3.64.09-7.28.06-10.93-.05-5.16.18-5.36,5.31-5.34,27.21.06,54.41.12,81.61.11,4.66,0,4.67-.13,5.06-4.75Z"/>
    <path class="st0" d="M400.86,482.79c.21,18.66.06,37.33.06,55.99,0,21.62.05,43.23-.08,64.84-.03,5.22.31,10.45-.32,15.67-.33,2.76-1.41,4.14-4.28,4.12-7.39-.06-14.79-.04-22.19-.02-2.52.01-3.71-1.05-3.71-3.7-.02-23.33-.15-46.65-.16-69.97-.02-16.6.61-33.2,0-49.8-.03-.85.32-1.81-.62-2.68-2.42,3.97-2.87,8.55-4.39,12.73-2.78,7.64-5.12,15.44-7.48,23.23-1.64,5.41-3.01,10.89-4.48,16.35-1.56,5.77-2.98,11.59-4.69,17.31-.62,2.07-1.87,3.94-4.56,3.93-2.84-.01-4.57-1.77-5.28-4.1-3.57-11.81-8.31-23.21-12.58-34.76-2.12-5.71-4.35-11.41-6.93-16.97-2.21-4.77-3.46-9.98-5.1-15-.21-.64-.14-1.39-.96-1.65-.72.16-.82.72-.79,1.3.96,17.85-.08,35.72.22,53.56.36,21.85-.64,43.69-.08,65.53.09,3.36-1.13,4.54-4.23,4.55-7.74.03-15.48.11-23.22.17-3.42.03-3.7-2.31-3.7-4.89.02-10.47.03-20.94.04-31.41.02-29.48.04-58.96.06-88.78-.03-23.67-.18-47.01.03-70.34.05-5.3-.27-10.64.41-15.96.4-3.07,1.89-4.57,4.84-4.55,5.56.04,11.12.21,16.67.31.9.02,1.83.11,2.71-.05,2.56-.47,4.19.6,5.03,2.95,1.99,5.52,3.96,11.05,5.88,16.6,2.92,8.43,5.74,16.88,8.7,25.29,2.29,6.51,4.83,12.93,7.1,19.45,2.29,6.57,4.74,13.09,6.47,19.85.18.67.51,1.31,1.32,1.37,1.05.07,1.25-.67,1.49-1.5,2.76-9.65,6.14-19.07,9.77-28.43,3.29-8.47,6.41-17.03,8.89-25.82,2.29-8.11,5.18-16.04,7.72-24.09,1.74-5.49,2.62-6.15,8.47-6.12,6.48.02,12.97-.07,19.46-.11,2.82-.02,4.57,1.61,4.49,4.3-.69,23.76-.26,47.53,0,71.3Z"/>
    <path class="st0" d="M270.31,619.7c.77,2.35-.99,3.69-3.25,3.7-8.76.02-17.52-.08-26.29-.17-1.31-.01-2.73-.43-2.87-1.89-.24-2.44-1.73-4.51-1.96-6.83-.82-8.48-3.14-16.68-4.72-25.01-.74-3.89-1.28-8.01-3.05-11.74-.81-1.69-1.97-2.39-3.76-2.26-10.63.77-21.26-.7-31.9-.07-2.68.15-4.15,1-4.61,3.84-1.12,6.92-2.48,13.82-3.76,20.71-1.26,6.76-2.64,13.53-3.92,20.3-.4,2.11-1.63,3.15-3.79,3.15-9.22-.01-18.44.02-27.65-.01-2.31,0-4.14-1.12-3.15-3.55,1.58-3.89,1.39-8.01,2.4-12.23,1.89-3.81,1.89-7.81,2.49-11.54,1.34-8.38,3.94-16.47,5.14-24.9.58-4.12,1.82-8.36,2.86-12.51,1.06-4.23,1.6-8.64,2.44-12.96,1.79-9.2,4.31-18.27,5.68-27.51,1.26-8.4,3.78-16.49,4.99-24.89.65-4.51,1.36-9.17,3.1-13.5.29-.73.51-1.52.59-2.29.66-6.39,2.5-12.55,3.68-18.83,1.45-7.76,3.7-15.37,4.54-23.26.52-4.92,1.76-9.74,3.36-14.43,1.12-3.24.59-6.72,1.91-10.01,1.07-2.65,2.52-3.71,5.24-3.9,9.21-.64,18.41-.04,27.61,0,2.64,0,4.21,1.84,4.59,4.28,1.19,7.61,2.9,15.14,4.46,22.65,1.7,8.17,3.37,16.39,5.16,24.55,1.03,4.68,2.42,9.39,2.76,14.28.26,3.71,1.39,7.41,2.4,10.9,1.4,4.81,1.57,9.81,3.11,14.61,1.15,3.55,1.58,7.48,2.35,11.25,1.83,8.98,3.81,17.93,5.6,26.91,1.54,7.77,3.39,15.49,4.82,23.29,1.43,7.78,3.33,15.48,4.98,23.22.92,4.32,1.69,8.67,2.67,12.97,1.03,4.5,2.22,8.97,3.39,13.43.88,3.39,1.26,6.88,2.36,10.25ZM222.25,549.64c1.05-.1,2.13-.29,1.79-2.31-.6-6.23-2.52-12.18-3.82-18.26-.76-3.54-1.94-7.15-2.13-10.61-.28-5.18-2.31-9.89-2.81-15.01-.38-3.84-1.2-7.81-2.08-11.65-1.46-6.39-3.46-12.65-3.7-19.27-.05-1.59-.09-3.21-2.01-3.8-1.47,1.09-.96,2.56-1.04,3.85-.14,1.92.1,3.87-.5,5.76-2.87,9.11-3.79,18.62-5.49,27.96-.95,5.2-1.7,10.53-2.78,15.65-1.69,8.09-2.35,16.39-4.8,24.33-.52,1.7-.41,3.75,2.08,3.73,9.1-.05,18.21.44,27.29-.37Z"/>
  </g>
  <g>
    <path class="st1" d="M45.18,553.39c-1.17-7.32-.76-14.35-.31-21.4.64-10.13-.7-20.24-.5-30.36.18-8.74,1.98-17.24,3.53-25.82.79-4.4,2.26-8.66,2.65-13.19.27-3.13,1.71-6.21,2.54-9.35,1.52-5.81,3.47-11.54,5.5-17.21,1.47-4.09,3.43-8.01,5.05-12.06,3.53-8.8,7.86-17.2,12.9-25.22,4.15-6.61,8.65-12.99,12.77-19.62,11.33-18.28,27.69-32.01,42.9-46.66,9.24-8.9,20.53-15.59,31.72-22.13,8.74-5.1,17.82-9.51,26.96-13.76,4.53-2.1,9.53-3.3,14.31-4.92,5.53-1.88,11.25-3.09,16.71-5.15,2.76-1.04,5.73-1.27,8.56-1.96,5.12-1.23,10.44-2.07,15.58-3.13,8.97-1.84,18.05-1.19,27-2.68,7.39-1.24,14.97-.79,22.44.37,1.9.3,3.83.53,5.76.57,9.31.19,18.35,2.17,27.49,3.68,4.56.75,9.11,1.6,13.6,2.62,3.92.89,7.9,1.68,11.7,3.17,2.7,1.06,5.56,1.67,8.33,2.57,6.52,2.13,12.74,4.89,19.04,7.54,7.67,3.22,14.82,7.4,22.12,11.28,5.98,3.17,11.84,6.71,17.31,10.69,9.7,7.05,19.19,14.4,27.67,22.97,9.32,9.43,19.19,18.36,27.09,29.09,7.65,10.38,14.57,21.23,20.61,32.66,4.26,8.06,8.03,16.34,11.45,24.74,1.95,4.8,3.8,9.77,4.85,14.94.5,2.51,1.45,4.98,2.25,7.37,2.49,7.41,3.78,15.1,5.11,22.67,1.52,8.64,2.7,17.46,2.66,26.33-.06,14.34.08,28.69-.06,43.03-.08,8.51-2.07,16.78-3.45,25.14-.73,4.45-2,8.77-2.64,13.23-.5,3.53-1.68,6.96-2.68,10.4-1.04,3.55-2.14,7.09-3.39,10.57-1.4,3.88-2.8,7.78-4.54,11.51-3.54,7.54-6.84,15.18-11.02,22.44-5.14,8.91-10.54,17.63-16.6,25.94-8.91,12.23-18.83,23.52-30.26,33.51-10.5,9.18-21.47,17.73-33.12,25.38-11.17,7.34-23.12,13.31-35.4,18.51-10.14,4.3-20.56,7.9-31.32,10.54-6.46,1.58-13,2.76-19.46,4.22-15.6,3.52-31.31,4.51-47.19,4.26-8.4-.13-16.89.29-25.16-.88-6.08-.85-12.34-1.13-18.28-3.03-3.56-1.14-7.32-1.35-10.97-2.13-11.86-2.55-23.3-6.4-34.43-10.92-13.95-5.68-27.12-13-39.94-21.08-19.27-12.14-35.93-27.19-51.18-43.87-5.25-5.73-9.27-12.57-13.97-18.82-5.87-7.77-11.45-15.72-15.74-24.5-4.04-8.27-8.19-16.46-11.51-25.1-2.53-6.58-5.01-13.21-7.07-19.91-1.15-3.75-2.22-7.72-3.1-11.63-.93-4.12-1.02-8.5-2.73-12.46-.73-1.7-1.03-3.49-.95-5.33.12-2.54-.27-4.99-1.19-7.66Z"/>
    <path class="st1" d="M422.73,381.84c4.79-6.07,9.52-12.19,14.39-18.18,1.47-1.8.63-2.72-.68-3.91-11.52-10.5-23.66-20.17-36.91-28.43-10.21-6.37-20.76-12.01-32.02-16.32-6.45-2.47-13.08-4.34-19.62-6.5-6.59-2.17-13.3-3.79-20.06-5.14-7.2-1.44-14.55-2.18-21.78-3.5-9.94-1.82-11.11-.97-10.98,8.91,0,.12,0,.23,0,.35.01,22.65.04,45.3.04,67.95,0,4.3-.44,4.67-4.7,4.67-4.67,0-9.33.02-14,.01-4.22,0-4.64-.41-4.64-4.73,0-11.16.03-22.31.02-33.47,0-13.31-.08-26.63-.02-39.95.01-2.87-.96-4.26-3.95-4.07-2.61.16-5.22.1-7.81.66-6.2,1.36-12.56,1.4-18.82,2.73-7.08,1.49-14.35,2.38-21.16,4.8-9.78,3.48-19.51,7.11-29.04,11.31-13.89,6.11-26.89,13.55-38.97,22.71-7.08,5.37-13.52,11.42-19.67,17.81-1.34,1.4-2.33,2.94-.37,4.65,4.06,3.54,6.94,8.11,10.34,12.21,8.13,9.81,14.6,20.79,21.35,31.55,1.22,1.95,2.15,4.26,1.64,6.82-1.17,5.78-2.06,11.62-3.42,17.35-.89,3.76-2.09,7.4-1.99,11.34.03,1.64-1.12,2.83-2.71,3.1-1.69.28-1.81-1.29-2.31-2.41-4.95-11.09-10.33-21.95-16.89-32.18-5.03-7.83-10.03-15.68-15.21-23.41-2.36-3.52-5.13-6.77-7.88-10.36-1.62,2.02-2.91,3.58-4.13,5.19-7.02,9.19-13.88,18.47-19.32,28.74-4.51,8.52-8.6,17.19-12.12,26.18-2.72,6.94-5.42,13.93-7.17,21.11-1.83,7.54-3.92,15.05-5.2,22.77-1.4,8.42-1.95,16.91-3.22,25.33-.58,3.83.14,4.32,4.06,4.28,15.57-.15,31.15-.34,46.72-.47,9.68-.08,19.35-.08,29.02-.08,3.56,0,3.94.85,3.12,4.22-1.06,4.34-3.29,8.18-4.83,12.3-1.24,3.32-3.62,4.82-7.39,4.78-13.66-.16-27.32-.07-40.97-.05-8.41.01-16.81-.6-25.23-.29-3.55.12-4.27.45-3.9,4.06.38,3.73,1.12,7.45,1.23,11.19.34,12.25,3.74,23.94,6.8,35.61,2.74,10.45,6.66,20.61,11.07,30.57,6.98,15.79,16.03,30.23,26.7,43.71,2.71,3.42,3.76,3.28,6.46-.15,4.65-5.9,8.45-12.38,12.6-18.62.9-1.35,1.88-2.35,3.48-2.36,7.06-.06,14.11-.09,21.17,0,1.88.02,2.83.95,1.43,2.87-.53.73-.97,1.52-1.41,2.31-5.83,10.52-12.06,20.78-19.6,30.19-5.14,6.43-5.07,7.6,1.23,13.03,15.29,13.16,31.97,24.25,49.94,33.38,5.74,2.92,11.75,5.26,17.72,7.67,7.34,2.96,14.83,5.4,22.49,7.3,6.48,1.61,13.1,2.62,19.53,4.29,7.19,1.87,14.55,2.12,21.8,3.24,4.48.69,4.74,0,4.74-4.66,0-14.46,0-28.92.02-43.37,0-10.02.03-20.04.01-30.05-.01-2.51.69-4.27,3.6-4.26,5.46.02,10.92.05,16.39.05,2.52,0,3.44,1.35,3.27,3.7-.65,8.98-.2,17.96-.07,26.95.22,15.82.22,31.64.17,47.47,0,3.18.98,4.35,4.3,4.42,5.21.1,10.12-1.8,15.21-1.88,9-.13,17.35-3.1,25.9-5.21,7.45-1.84,14.79-4.13,21.98-6.86,5.91-2.25,11.88-4.35,17.56-7.15,9.79-4.82,19.1-10.39,28.15-16.53,9.91-6.71,19.07-14.28,28.14-22.02,1.39-1.19,1.7-2.3.46-3.76-9.22-10.83-16.18-23.28-24.84-34.52-.95-1.22-1.51-2.52-1.51-4.06,0-16.73-.03-33.46-.02-50.2.01-1.22.01-2.86,1.6-2.97,1.75-.11,3.21,1.05,3.23,2.86.03,3.16,1.25,5.93,2.09,8.86,2.95,10.3,7.92,19.67,13.18,28.87,4.84,8.46,10.19,16.63,15.49,24.82,2.35,3.62,5.12,6.97,7.88,10.68,5-5.48,9.01-10.85,12.69-16.41,5.82-8.79,10.89-18.03,15.25-27.63,2.39-5.25,5.01-10.42,6.91-15.84,1.78-5.08,3.96-10.04,4.99-15.4.8-4.16,2.11-8.23,3.37-12.29,1.28-4.14,1.7-8.43,2.52-12.65,1.68-8.7,2.68-17.46,3.11-26.31.12-2.56-1.02-3.56-3.64-3.73-6.5-.44-12.96.21-19.43.33-12.06.21-24.13.06-36.2.07-9.33.01-18.66-.07-27.98.13-4.07.08-4.68-.3-4.58-4.48.09-3.64.09-7.28.06-10.93-.05-5.16.18-5.36,5.31-5.34,27.21.06,54.41.12,81.61.11,4.66,0,4.67-.13,5.06-4.75.06-.68.15-1.38.01-2.04-1.77-8.79-1.68-17.79-3.47-26.64-2.22-10.98-4.65-21.81-8.22-32.45-2.63-7.84-5.56-15.55-9.09-22.95-7-14.66-15.62-28.41-25.62-41.25-1.73-2.22-3.05-2.12-4.73.31-3.17,4.56-6.32,9.13-9.51,13.67-11.14,15.86-21.59,32.08-27.43,50.81-.44,1.42-.99,3.51-2.97,3.15-1.8-.33-1.46-2.34-1.46-3.77-.06-14.34-.07-28.68-.1-43.02,0-1.37-.04-2.77.79-3.96,3.74-5.41,7.51-10.8,11.56-16.59Z"/>
    <path class="st1" d="M281.41,498.34c-.03-23.67-.18-47.01.03-70.34.05-5.3-.27-10.64.41-15.96.4-3.07,1.89-4.57,4.84-4.55,5.56.04,11.12.21,16.67.31.9.02,1.83.11,2.71-.05,2.56-.47,4.19.6,5.03,2.95,1.99,5.52,3.96,11.05,5.88,16.6,2.92,8.43,5.74,16.88,8.7,25.29,2.29,6.51,4.83,12.93,7.1,19.45,2.29,6.57,4.74,13.09,6.47,19.85.18.67.51,1.31,1.32,1.37,1.05.07,1.25-.67,1.49-1.5,2.76-9.65,6.14-19.07,9.77-28.43,3.29-8.47,6.41-17.03,8.89-25.82,2.29-8.11,5.18-16.04,7.72-24.09,1.74-5.49,2.62-6.15,8.47-6.12,6.48.02,12.97-.07,19.46-.11,2.82-.02,4.57,1.61,4.49,4.3-.69,23.76-.26,47.53,0,71.3.21,18.66.06,37.33.06,55.99,0,21.62.05,43.23-.08,64.84-.03,5.22.31,10.45-.32,15.67-.33,2.76-1.41,4.14-4.28,4.12-7.39-.06-14.79-.04-22.19-.02-2.52.01-3.71-1.05-3.71-3.7-.02-23.33-.15-46.65-.16-69.97-.02-16.6.61-33.2,0-49.8-.03-.85.32-1.81-.62-2.68-2.42,3.97-2.87,8.55-4.39,12.73-2.78,7.64-5.12,15.44-7.48,23.23-1.64,5.41-3.01,10.89-4.48,16.35-1.56,5.77-2.98,11.59-4.69,17.31-.62,2.07-1.87,3.94-4.56,3.93-2.84-.01-4.57-1.77-5.28-4.1-3.57-11.81-8.31-23.21-12.58-34.76-2.12-5.71-4.35-11.41-6.93-16.97-2.21-4.77-3.46-9.98-5.1-15-.21-.64-.14-1.39-.96-1.65-.72.16-.82.72-.79,1.3.96,17.85-.08,35.72.22,53.56.36,21.85-.64,43.69-.08,65.53.09,3.36-1.13,4.54-4.23,4.55-7.74.03-15.48.11-23.22.17-3.42.03-3.7-2.31-3.7-4.89.02-10.47.03-20.94.04-31.41.02-29.48.04-58.96.06-88.78Z"/>
    <path class="st1" d="M148.03,607.64c1.89-3.81,1.89-7.81,2.49-11.54,1.34-8.38,3.94-16.47,5.14-24.9.58-4.12,1.82-8.36,2.86-12.51,1.06-4.23,1.6-8.64,2.44-12.96,1.79-9.2,4.31-18.27,5.68-27.51,1.26-8.4,3.78-16.49,4.99-24.89.65-4.51,1.36-9.17,3.1-13.5.29-.73.51-1.52.59-2.29.66-6.39,2.5-12.55,3.68-18.83,1.45-7.76,3.7-15.37,4.54-23.26.52-4.92,1.76-9.74,3.36-14.43,1.12-3.24.59-6.72,1.91-10.01,1.07-2.65,2.52-3.71,5.24-3.9,9.21-.64,18.41-.04,27.61,0,2.64,0,4.21,1.84,4.59,4.28,1.19,7.61,2.9,15.14,4.46,22.65,1.7,8.17,3.37,16.39,5.16,24.55,1.03,4.68,2.42,9.39,2.76,14.28.26,3.71,1.39,7.41,2.4,10.9,1.4,4.81,1.57,9.81,3.11,14.61,1.15,3.55,1.58,7.48,2.35,11.25,1.83,8.98,3.81,17.93,5.6,26.91,1.54,7.77,3.39,15.49,4.82,23.29,1.43,7.78,3.33,15.48,4.98,23.22.92,4.32,1.69,8.67,2.67,12.97,1.03,4.5,2.22,8.97,3.39,13.43.88,3.39,1.26,6.88,2.36,10.25.77,2.35-.99,3.69-3.25,3.7-8.76.02-17.52-.08-26.29-.17-1.31-.01-2.73-.43-2.87-1.89-.24-2.44-1.73-4.51-1.96-6.83-.82-8.48-3.14-16.68-4.72-25.01-.74-3.89-1.28-8.01-3.05-11.74-.81-1.69-1.97-2.39-3.76-2.26-10.63.77-21.26-.7-31.9-.07-2.68.15-4.15,1-4.61,3.84-1.12,6.92-2.48,13.82-3.76,20.71-1.26,6.76-2.64,13.53-3.92,20.3-.4,2.11-1.63,3.15-3.79,3.15-9.22-.01-18.44.02-27.65-.01-2.31,0-4.14-1.12-3.15-3.55,1.58-3.89,1.39-8.01,2.4-12.23Z"/>
    <path class="st1" d="M224.04,547.33c-.6-6.23-2.52-12.18-3.82-18.26-.76-3.54-1.94-7.15-2.13-10.61-.28-5.18-2.31-9.89-2.81-15.01-.38-3.84-1.2-7.81-2.08-11.65-1.46-6.39-3.46-12.65-3.7-19.27-.05-1.59-.09-3.21-2.01-3.8-1.47,1.09-.96,2.56-1.04,3.85-.14,1.92.1,3.87-.5,5.76-2.87,9.11-3.79,18.62-5.49,27.96-.95,5.2-1.7,10.53-2.78,15.65-1.69,8.09-2.35,16.39-4.8,24.33-.52,1.7-.41,3.75,2.08,3.73,9.1-.05,18.21.44,27.29-.37,1.05-.1,2.13-.29,1.79-2.31Z"/>
  </g>
</svg>